<mxfile host="65bd71144e">
    <diagram id="UO7OXJk-Yy_kNFdSAnm9" name="Page-1">
        <mxGraphModel dx="1848" dy="2139" grid="1" gridSize="10" guides="1" tooltips="1" connect="1" arrows="1" fold="1" page="1" pageScale="1" pageWidth="850" pageHeight="1100" math="0" shadow="0">
            <root>
                <mxCell id="0"/>
                <mxCell id="1" parent="0"/>
                <mxCell id="25" value="" style="ellipse;whiteSpace=wrap;html=1;opacity=20;fillColor=#0050ef;fontColor=#ffffff;strokeColor=#001DBC;" parent="1" vertex="1">
                    <mxGeometry x="200" y="50" width="870" height="630" as="geometry"/>
                </mxCell>
                <mxCell id="23" value="" style="ellipse;whiteSpace=wrap;html=1;fillColor=#a20025;opacity=20;fontColor=#ffffff;strokeColor=#6F0000;" parent="1" vertex="1">
                    <mxGeometry x="200" y="-560" width="880" height="520" as="geometry"/>
                </mxCell>
                <mxCell id="30" style="edgeStyle=none;html=1;exitX=1;exitY=0.5;exitDx=0;exitDy=0;entryX=0;entryY=0.5;entryDx=0;entryDy=0;fontSize=13;strokeWidth=3;" parent="1" source="2" target="3" edge="1">
                    <mxGeometry relative="1" as="geometry"/>
                </mxCell>
                <mxCell id="32" style="edgeStyle=none;html=1;exitX=0.5;exitY=0;exitDx=0;exitDy=0;entryX=0.5;entryY=1;entryDx=0;entryDy=0;strokeWidth=3;fontSize=13;" parent="1" source="2" target="21" edge="1">
                    <mxGeometry relative="1" as="geometry"/>
                </mxCell>
                <mxCell id="39" style="edgeStyle=none;html=1;exitX=0;exitY=1;exitDx=0;exitDy=0;entryX=0.5;entryY=0;entryDx=0;entryDy=0;fontSize=13;strokeWidth=3;" edge="1" parent="1" source="2" target="35">
                    <mxGeometry relative="1" as="geometry"/>
                </mxCell>
                <mxCell id="41" style="edgeStyle=none;html=1;exitX=0.5;exitY=1;exitDx=0;exitDy=0;entryX=0.5;entryY=0;entryDx=0;entryDy=0;strokeWidth=3;fontSize=13;" edge="1" parent="1" source="2" target="40">
                    <mxGeometry relative="1" as="geometry"/>
                </mxCell>
                <mxCell id="42" style="edgeStyle=none;html=1;exitX=1;exitY=0;exitDx=0;exitDy=0;entryX=0;entryY=0.5;entryDx=0;entryDy=0;strokeWidth=3;fontSize=13;" edge="1" parent="1" source="2" target="37">
                    <mxGeometry relative="1" as="geometry"/>
                </mxCell>
                <mxCell id="45" style="edgeStyle=none;html=1;exitX=0.5;exitY=0;exitDx=0;exitDy=0;entryX=0.5;entryY=1;entryDx=0;entryDy=0;strokeWidth=3;fontSize=13;" edge="1" parent="1" source="2" target="44">
                    <mxGeometry relative="1" as="geometry"/>
                </mxCell>
                <mxCell id="2" value="&lt;font style=&quot;font-size: 13px;&quot;&gt;&lt;b&gt;SPRINGBOOT BACKEND&lt;br&gt;&lt;/b&gt;&lt;/font&gt;" style="rounded=0;whiteSpace=wrap;html=1;align=center;" parent="1" vertex="1">
                    <mxGeometry x="700" y="160" width="210" height="150" as="geometry"/>
                </mxCell>
                <mxCell id="3" value="&lt;span style=&quot;font-size: 13px;&quot;&gt;&lt;b&gt;REDDIS&lt;/b&gt;&lt;br&gt;&lt;ul style=&quot;&quot;&gt;&lt;li style=&quot;text-align: left;&quot;&gt;&lt;span style=&quot;font-size: 13px;&quot;&gt;We may not need this?&lt;/span&gt;&lt;/li&gt;&lt;li style=&quot;text-align: left;&quot;&gt;&lt;span style=&quot;font-size: 13px;&quot;&gt;User for Caching&lt;/span&gt;&lt;/li&gt;&lt;li style=&quot;text-align: left;&quot;&gt;&lt;span style=&quot;font-size: 13px;&quot;&gt;May be redundant due to Cloud Storage&lt;/span&gt;&lt;/li&gt;&lt;/ul&gt;&lt;/span&gt;" style="rounded=0;whiteSpace=wrap;html=1;align=center;" parent="1" vertex="1">
                    <mxGeometry x="370" y="160" width="240" height="150" as="geometry"/>
                </mxCell>
                <mxCell id="43" style="edgeStyle=none;html=1;exitX=1;exitY=1;exitDx=0;exitDy=0;entryX=0;entryY=0;entryDx=0;entryDy=0;strokeWidth=3;fontSize=13;" edge="1" parent="1" source="19" target="37">
                    <mxGeometry relative="1" as="geometry"/>
                </mxCell>
                <mxCell id="19" value="&lt;font style=&quot;font-size: 13px;&quot;&gt;&lt;b&gt;CLOUD STORAGE&lt;/b&gt;&lt;br&gt;&lt;ol style=&quot;&quot;&gt;&lt;li style=&quot;&quot;&gt;Book Covers&lt;/li&gt;&lt;/ol&gt;&lt;/font&gt;" style="rounded=0;whiteSpace=wrap;html=1;align=center;" parent="1" vertex="1">
                    <mxGeometry x="780" y="-375" width="240" height="150" as="geometry"/>
                </mxCell>
                <mxCell id="21" value="&lt;span style=&quot;font-size: 13px;&quot;&gt;&lt;b&gt;AUTHENTICATION&lt;/b&gt;&lt;/span&gt;" style="rounded=0;whiteSpace=wrap;html=1;align=center;" parent="1" vertex="1">
                    <mxGeometry x="530" y="-375" width="240" height="150" as="geometry"/>
                </mxCell>
                <mxCell id="24" value="&lt;font style=&quot;font-size: 21px;&quot;&gt;Firebase&lt;/font&gt;" style="text;strokeColor=none;align=center;fillColor=none;html=1;verticalAlign=middle;whiteSpace=wrap;rounded=0;opacity=20;" parent="1" vertex="1">
                    <mxGeometry x="555" y="-540" width="160" height="50" as="geometry"/>
                </mxCell>
                <mxCell id="26" value="&lt;font style=&quot;font-size: 21px;&quot;&gt;Azure&lt;/font&gt;" style="text;strokeColor=none;align=center;fillColor=none;html=1;verticalAlign=middle;whiteSpace=wrap;rounded=0;opacity=20;" parent="1" vertex="1">
                    <mxGeometry x="580" y="90" width="160" height="50" as="geometry"/>
                </mxCell>
                <mxCell id="34" value="" style="ellipse;whiteSpace=wrap;html=1;fillColor=#60a917;opacity=20;fontColor=#ffffff;strokeColor=#2D7600;" parent="1" vertex="1">
                    <mxGeometry x="1080" y="-160" width="560" height="330" as="geometry"/>
                </mxCell>
                <mxCell id="35" value="&lt;font style=&quot;font-size: 13px;&quot;&gt;&lt;b&gt;JOB SCHEDULER&lt;br&gt;&lt;ul&gt;&lt;li style=&quot;text-align: left;&quot;&gt;Automate Recomender System Training&lt;/li&gt;&lt;/ul&gt;&lt;/b&gt;&lt;/font&gt;" style="rounded=0;whiteSpace=wrap;html=1;align=center;" vertex="1" parent="1">
                    <mxGeometry x="370" y="430" width="210" height="150" as="geometry"/>
                </mxCell>
                <mxCell id="36" value="&lt;font style=&quot;font-size: 21px;&quot;&gt;React Native App&lt;/font&gt;" style="text;strokeColor=none;align=center;fillColor=none;html=1;verticalAlign=middle;whiteSpace=wrap;rounded=0;opacity=20;" vertex="1" parent="1">
                    <mxGeometry x="1275" y="-130" width="160" height="50" as="geometry"/>
                </mxCell>
                <mxCell id="47" style="edgeStyle=none;html=1;exitX=0;exitY=0.5;exitDx=0;exitDy=0;entryX=0.5;entryY=1;entryDx=0;entryDy=0;strokeWidth=3;fontSize=13;" edge="1" parent="1" source="37" target="21">
                    <mxGeometry relative="1" as="geometry"/>
                </mxCell>
                <mxCell id="37" value="&lt;span style=&quot;font-size: 13px;&quot;&gt;&lt;b&gt;FRONT END&lt;/b&gt;&lt;/span&gt;" style="rounded=0;whiteSpace=wrap;html=1;align=center;" vertex="1" parent="1">
                    <mxGeometry x="1235" y="-60" width="240" height="150" as="geometry"/>
                </mxCell>
                <mxCell id="40" value="&lt;font style=&quot;font-size: 13px;&quot;&gt;&lt;b&gt;DB&lt;br&gt;&lt;ul&gt;&lt;li style=&quot;text-align: left;&quot;&gt;Store Platform Information&lt;/li&gt;&lt;li style=&quot;text-align: left;&quot;&gt;Might be deployed on Azure, might not&lt;/li&gt;&lt;/ul&gt;&lt;/b&gt;&lt;/font&gt;" style="rounded=0;whiteSpace=wrap;html=1;align=center;" vertex="1" parent="1">
                    <mxGeometry x="720" y="430" width="210" height="150" as="geometry"/>
                </mxCell>
                <mxCell id="44" value="&lt;span style=&quot;font-size: 13px;&quot;&gt;&lt;b&gt;EMAIL SERVICE&lt;/b&gt;&lt;/span&gt;" style="rounded=0;whiteSpace=wrap;html=1;align=center;" vertex="1" parent="1">
                    <mxGeometry x="270" y="-375" width="240" height="150" as="geometry"/>
                </mxCell>
            </root>
        </mxGraphModel>
    </diagram>
</mxfile>